# xmcd
#
# Track frame offsets:
# 150
# 14882
# 28250
# 46510
# 64957
# 81517
# 97435
# 112690
# 128070
# 142155
# 156960
#
# Disc length: 2207 seconds
#
#
# Revision: 0
# Processed by: cddbd v1.5.1PL0 Copyright (c) Steve Scherf et al.
# Submitted via: FreeRIP 2.90 
#
DISCID=9f089d0b
DTITLE=Bill Mullis - Dreamland
DYEAR=1999
DGENRE=Gospel
TTITLE0=Dreamland
TTITLE1=That's What Heaven Is Like
TTITLE2=When You Wish Upon A Star
TTITLE3=Over The Rainbow
TTITLE4=Thomas
TTITLE5=THe Lord Is Their
TTITLE6=Not Turning Back
TTITLE7=Last Night I Fell In Love Again
TTITLE8=He's My Shelter
TTITLE9=Sincerely Yours
TTITLE10=Goodnight
EXTD=
EXTT0=
EXTT1=
EXTT2=
EXTT3=
EXTT4=
EXTT5=
EXTT6=
EXTT7=
EXTT8=
EXTT9=
EXTT10=
PLAYORDER=
